# xmcd
#
# Track frame offsets:
# 150
# 14221
# 28586
# 41563
# 54705
# 66336
# 80541
# 93466
# 105045
# 116592
# 131399
# 146826
# 161509
# 176534
# 190390
# 203289
# 217244
# 229515
# 243467
# 259841
#
# Disc length: 3634 seconds
#
# Revision: 1
# Processed by: cddbd v1.5.1PL0 Copyright (c) Steve Scherf et al.
# Submitted via: CedeCatalogueitor 2.6.0.4 http://personales.ya.com/cdcatalogueitor
#
DISCID=1b0e3014
DTITLE=PEPE PINTO - QUEJÍO "Gran Cante"  [CD-1)
DYEAR=1998
DGENRE=FLAMENCO
TTITLE0=Cantes De Primavera
TTITLE1=Dolores María
TTITLE2=El Gitano Viejo
TTITLE3=Hermanita Siéntate A Mi Vera
TTITLE4=Mi Capona
TTITLE5=Malagueña De La Pena
TTITLE6=Brillante Que No Da Luces
TTITLE7=Por La Sierre De Lija
TTITLE8=Al Pie De La Fragua
TTITLE9=Pregonero Andaluz
TTITLE10=Mi Tierra Española
TTITLE11=Rosa Linares
TTITLE12=Semblanza De Tomás Pavon
TTITLE13=Sábado, Domingo Y Lunes
TTITLE14=Seguidillas
TTITLE15=A Las Raíces Me Agarro
TTITLE16=Cantes Camperos
TTITLE17=Huérfanos Los Dos
TTITLE18=Riña De Novios
TTITLE19=Que La Mía Compañera
EXTD=
EXTT0=
EXTT1=
EXTT2=
EXTT3=
EXTT4=
EXTT5=
EXTT6=
EXTT7=
EXTT8=
EXTT9=
EXTT10=
EXTT11=
EXTT12=
EXTT13=
EXTT14=
EXTT15=
EXTT16=
EXTT17=
EXTT18=
EXTT19=
PLAYORDER=
